<?xml version="1.0" encoding="utf-8"?>
<!-- Generator: Adobe Illustrator 21.1.0, SVG Export Plug-In . SVG Version: 6.00 Build 0)  -->
<svg version="1.1" id="Layer_1" xmlns="http://www.w3.org/2000/svg" xmlns:xlink="http://www.w3.org/1999/xlink" x="0px" y="0px"
	 viewBox="0 0 388 277" style="enable-background:new 0 0 388 277;" xml:space="preserve">
<style type="text/css">
	.st0{fill:#FFFFFF;}
</style>
<g>
	<path d="M379,274c-122.3,0-244.7,0-367,0c0-2,0-4,0-6c3.5-5.1,9.3-7.9,14-11.4c4.6-3.5,5.3-6.3,5.1-10.8c0-1.4,0.1-2.9,0.3-4.9
		c3.7,0,7.1,0,11,0c0-38.9,0-77.3,0-115.7c11.2-0.5-13.6-1.8-3-2.3c0-0.3,3,2.6,3,2.3c-11.8,0,9-2.3-3-2.3c-0.2-1.8-0.4-3.2-0.5-4.7
		c-5.2-1.2-7.6-5.4-7.5-9.8c0.2-5.3,4.4-8.5,9.4-9.7c0-4.6,0-9.1,0-11.7c-3.8-2.7-6.6-4.7-9.3-6.7c0.2-0.5,0.5-0.9,0.7-1.4
		c2.9,0,5.9,0,8.8,0c0-1.7,0-3,0-4.7c-4.6,0-7.7-1.8-7-7.1c-7.6,0-14.7,0-21.9,0c0-3.3,0-6.7,0-10c18.2-5,36.4-10,54.5-15.1
		c31.3-8.9,62.6-17.8,93.9-26.8C170.6,12.2,180.8,9,191,6c3,0,6,0,9,0c0.3,0.3,0.6,0.8,1,1c28.2,8,56.4,16,84.6,24
		c19.5,5.5,39,10.7,58.4,16.3c12,3.4,24,7.2,36,10.8c0,1.7,0,3.3,0,5c-0.6,1.2-1.1,2.5-1.8,3.9c-3.2,0-6.5,0-9.9,0
		c-3.3,0-6.6,0-9.9,0c-1,5.9-1,5.9-7.6,7.8c0.1,1.3,0.2,2.7,0.4,4.3c3.2,0,6,0,9.6,0c-1.2,1.9-1.8,3.6-3,4.3c-2,1.1-4.4,1.6-7,2.4
		c0,2.7-0.5,5.6,0.2,8.2c0.6,2.2,2,4.8,3.9,5.9c7.4,4.3,8,12.7,1,17.5c-3.8,2.6-6,6-6,10.7c0,35.8,0,71.6,0,107.5c0,1.8,0,3.5,0,5.6
		c3.7,0,6.6,0,10.1,0c0,4.8,0,9.2,0,13.6c0.4-0.3,0.9-0.7,1.3-1c2.5,1.9,5,3.7,7.3,5.7c1.1,0.9,1.7,3.1,2.8,3.2
		C378.3,263.7,379.1,268.5,379,274z M310.2,125.2c-11.4,0,10-2.2-1.1-2.2c-1-1.9-1.4-4.1-2.6-4.8c-3.7-2.2-6.7-5.3-6-9.3
		c0.5-3.5,3.3-6.6,5.1-9.7c-72.6,0-146,0-220.7,0c1.8,1,2.6,1.4,3.4,2c4.9,3.5,5.5,12.7,0.5,15.3C83.1,119.3,82,124,82,129
		c-0.1,36-0.1,72-0.1,108c0,1.6,0.1,3.2,0.3,5.4c76.1,0,151.7,0,228,0C310.2,203.5,310.2,164.4,310.2,125.2 M91.7,58.2
		c0,0.2,0.1,0.4,0.1,0.6c69.1,0,138.2,0,207.3,0c-4.3-1.9-8.8-3.2-13.3-4.5C258.6,46.5,231.3,38.7,204,31c-3.4-1-7.1-2.2-10.5-1.7
		c-5.3,0.8-10.3,3-15.5,4.5c-19.3,5.4-38.6,10.7-57.9,16.2C110.7,52.7,101.2,55.5,91.7,58.2z M39.9,70.2c0,0.2,0,0.4,0,0.6
		c104.7,0,209.4,0,314.1,0c0-0.2,0-0.4,0-0.6C249.3,70.2,144.6,70.2,39.9,70.2z M321,103.1c1,2.9,2.9,5.8,2.6,8.5
		c-0.3,2.6-3,4.9-4.4,7c6.8,0,13.9,0,21.5,0c-5.7-4.8-6-7.6-2.4-15.5C332.4,103.1,326.6,103.1,321,103.1z M70.4,103.1
		c-6.6,0-12.7,0-18.9,0c4.9,7.7,4.6,9.6-2,15.7c7.4,0,14.5,0,22,0C65.7,113.5,65.4,108.7,70.4,103.1z"/>
	<path class="st0" d="M12,67c7.1,0,14.3,0,21.9,0c-0.7,5.4,2.4,7.1,7,7.1c0,1.6,0,3,0,4.7c-2.9,0-5.8,0-8.8,0
		c-0.2,0.5-0.5,0.9-0.7,1.4c2.8,2,5.5,4,9.3,6.7c0,2.7,0,7.1,0,11.7c-5,1.3-9.2,4.4-9.4,9.7c-0.2,4.4,2.2,8.6,7.5,9.8
		c0.2,1.5,0.3,3,0.5,4.7c11.9,0-11.8,0,0,0c-32.5,2.3,3,2.1,3,2.3c-10.7,0.5,11.2-0.5,0,0c0,38.4,0,76.8,0,115.7c-3.9,0-7.3,0-11,0
		c-0.1,2-0.3,3.4-0.3,4.9c0.1,4.5-0.5,7.4-5.1,10.8c-4.6,3.4-10.4,6.3-14,11.4C12,201,12,134,12,67z"/>
	<path class="st0" d="M379,274c0.1-5.5-0.7-10.3-7.5-11.3c-1.1-0.2-1.7-2.3-2.8-3.2c-2.4-2-4.9-3.8-7.3-5.7c-0.4,0.3-0.9,0.7-1.3,1
		c0-4.4,0-8.8,0-13.6c-3.4,0-6.4,0-10.1,0c0-2.1,0-3.9,0-5.6c0-35.8,0-71.6,0-107.5c0-4.7,2.2-8.2,6-10.7c7.1-4.8,6.5-13.2-1-17.5
		c-1.9-1.1-3.3-3.7-3.9-5.9c-0.7-2.6-0.2-5.6-0.2-8.2c2.6-0.8,5-1.3,7-2.4c1.2-0.7,1.8-2.5,3-4.3c-3.7,0-6.5,0-9.6,0
		c-0.1-1.6-0.2-3-0.4-4.3c6.6-1.8,6.6-1.8,7.6-7.8c3.2,0,6.5,0,9.9,0c3.3,0,6.6,0,9.9,0c0.7-1.5,1.2-2.7,1.8-3.9
		c0,68.8,0,137.7,0,206.5C380,271,379.3,272.5,379,274z"/>
	<path class="st0" d="M380,58c-12-3.6-23.9-7.4-36-10.8c-19.4-5.5-38.9-10.8-58.4-16.3C257.4,23,229.2,15,201,7
		c-0.4-0.1-0.6-0.6-1-1c60,0,120,0,180,0C380,23.4,380,40.7,380,58z"/>
	<path class="st0" d="M191,6c-10.2,3-20.4,6.2-30.6,9.1c-31.3,9-62.6,17.9-93.9,26.8C48.4,47,30.2,52,12,57c0-17,0-34,0-51
		C71.7,6,131.3,6,191,6z"/>
	<path class="st0" d="M91.7,58.2c9.5-2.7,18.9-5.5,28.4-8.2c19.3-5.4,38.6-10.7,57.9-16.2c5.2-1.5,10.2-3.7,15.5-4.5
		c3.3-0.5,7.1,0.7,10.5,1.7c27.3,7.7,54.5,15.5,81.8,23.3c4.5,1.3,8.9,2.6,13.3,4.5c-69.1,0-138.2,0-207.3,0
		C91.8,58.6,91.8,58.4,91.7,58.2z"/>
	<path class="st0" d="M321,103.1c5.6,0,11.5,0,17.4,0c-3.6,8-3.3,10.7,2.4,15.5c-7.6,0-14.7,0-21.5,0c1.4-2.1,4.1-4.4,4.4-7
		C323.9,109,322,106,321,103.1z"/>
</g>
</svg>
