<?xml version="1.0" encoding="utf-8"?>
<!-- Generator: Adobe Illustrator 21.1.0, SVG Export Plug-In . SVG Version: 6.00 Build 0)  -->
<svg version="1.1" id="Layer_1" xmlns="http://www.w3.org/2000/svg" xmlns:xlink="http://www.w3.org/1999/xlink" x="0px" y="0px"
	 viewBox="0 0 388 277" style="enable-background:new 0 0 388 277;" xml:space="preserve">
<style type="text/css">
	.st0{clip-path:url(#SVGID_2_);}
	.st1{clip-path:url(#SVGID_4_);fill:#FFFFFF;}
</style>
<g id="GB_Logo_White">
	<g>
		<defs>
			<rect id="SVGID_1_" x="9.7" y="8" width="368.5" height="269"/>
		</defs>
		<clipPath id="SVGID_2_">
			<use xlink:href="#SVGID_1_"  style="overflow:visible;"/>
		</clipPath>
		<g class="st0">
			<defs>
				<rect id="SVGID_3_" x="9.7" y="8" width="368.5" height="269"/>
			</defs>
			<clipPath id="SVGID_4_">
				<use xlink:href="#SVGID_3_"  style="overflow:visible;"/>
			</clipPath>
			<path class="st1" d="M263.3,65.9h-96.2H70.7H29c0.1,0,0.2,0,0.3,0c24.7-7,49.4-14.1,74.2-21.1c30.1-8.6,60.3-17.1,90.4-25.7
				c0,1.7-0.1,3.4,0,5.1c0-1.7,0-3.3,0-5c30.2,8.5,60.3,17.1,90.5,25.6c24.8,7,49.6,14,74.3,21.1H263.3z M40.5,78v-1.9
				c0-0.7,0.5-0.4,1.3-0.4h21.6h43.5h87.4h87.4h43.6h21.7c0.2,0,2.2,0,2.2,0V76v1.8v3.6h-47h-87.4h-87.7c-7.3,0-86.7,0-86.7,0V78z
				 M350.2,107.8c-0.8-0.6-1.7-1-2.6-1.4c-0.4-0.2-0.8-0.2-1.2-0.2c0.8,0,1.5,0,2.3,0.2c0.8,0.3,1.7,0.7,2.3,1.2
				c1.3,0.9,2,2.2,2.2,3.6c0.2,1.6-0.5,3.1-1.8,4.3c-1.1,1.1-2.9,1.4-4.6,1.4h-1c0.2,0,0.3,0,0.5,0c-2.9-0.1-5.4-1.1-6-3.7
				c-0.3-1.2,0.4-2.5,1.5-3.3c1.1-0.7,2.4-0.8,3.7-0.8c-2.9,0-4.3,2-4.1,4.2c0.2,2,2.7,3.4,5,3.5c3.1-0.3,5.8-2.4,5.7-5
				C352.1,110.4,351.5,108.7,350.2,107.8 M354.2,105.7c2,1.7,3.1,4,2.7,6.3c-0.2,1.1-0.4,2.3-1.1,3.3c-0.5,0.8-1.3,1.8-2.2,2.3
				c-1.2,0.7-2.2,1.4-3.6,1.7c-1.4,0.3-2.8,0.5-4.2,0.6c0.1,0,0.3,0,0.4,0c-0.2,0-0.5,0-0.7,0c-0.1,0-0.3,0-0.4,0c0.1,0,0.1,0,0.2,0
				c-2.2-0.1-4.1-0.5-5.8-1.8c-1.9-1.4-2.8-3.2-2.8-5.2c0-2,1.2-3.6,2.8-5c1.8-1.5,4.2-1.7,6.7-1.7c-2.2,0-4.5,0.7-6.1,2
				c-1.5,1.2-2.7,3.4-2.4,5.1c0.3,1.7,0.8,3.6,2.5,4.7c1.5,1,3.3,1.8,5.3,2c2.5-0.2,4.8-0.7,6.7-2.1c2-1.5,3.4-3.3,3.6-5.5
				c0.3-2.2-0.5-4.2-2.3-5.9c-0.8-0.8-1.7-1.4-2.8-1.8c-1.2-0.5-2.5-0.5-3.8-0.6c0.2-0.2,0.4-0.3,0.6-0.5c-0.8,0.7-1.9,0.5-3,0.5
				h-4.6h-9.5c-6.3,0-12.6-0.2-18.9,0c-1.4,0-3.1,0-4.4,0.4c-1.2,0.4-2.2,1.1-3.1,1.8c-1.9,1.4-2.8,4.1-2.5,6.2
				c0.4,2.1,1.6,4,3.6,5.4c1.8,1.4,4.1,1.9,6.6,2.1c4.6-0.4,8.1-3.6,7.7-7.4c-0.3-3.4-3.9-6.2-8.1-6.3c-0.6,0-1.3,0.1-1.8,0.4
				c-0.8,0.4-1.8,0.7-2.5,1.2c-1,0.8-1.7,2.4-1.8,3.5c-0.1,0.6-0.1,1.3,0,1.8c0.2,0.6,0.9,1.3,1.3,1.8c1,1.1,2.6,1.8,4.2,1.9
				c2.4-0.1,4.5-1.5,5-3.4c0.6-2.1-1.4-4.3-4.1-4.3c1.4,0,2.9,0,3.9,0.9c1.1,0.9,1.5,2.1,1.1,3.4c-0.3,1-0.8,2.1-1.9,2.6
				c-1.2,0.7-2.4,0.8-3.7,0.9c0.1,0,0.2,0,0.2,0h-1.1c-3.7,0-6.8-2.7-6.2-5.7c0.3-1.4,1-2.8,2.5-3.7c0.7-0.4,1.5-0.9,2.4-1.1
				c0.9-0.2,2-0.1,2.9-0.1c-0.2,0-0.3,0-0.5,0c2.3,0,4.6,0.3,6.3,1.7c1.7,1.4,2.8,3,2.9,5c0,2.1-1,4-3,5.4c-1.6,1.2-3.7,1.6-5.8,1.6
				c0,0,0.1,0,0.1,0c-0.1,0-0.3,0-0.4,0c-0.2,0-0.5,0-0.7,0c0.1,0,0.3,0,0.4,0c-2.7-0.1-5.5-0.7-7.5-2.2c-2.1-1.6-3.3-3.7-3.4-5.9
				c-0.1-2.4,0.8-4.5,2.9-6.2c1.9-1.6,4.4-2.3,7-2.5c-0.1,0.2-0.3,0.3-0.4,0.5c0.6-0.7,1.7-0.5,2.7-0.5h4.8h9.7h19.7
				C349.7,103.3,352.2,104,354.2,105.7 M349.6,247.3c0.6,0,4.4-0.3,4.5,0.2c0.2,0.7,0,1.5,0,2.2c0,2.7-0.2,5.4,0.1,8
				c0.1,0.7-0.3,0.6-1,0.6h-2.5h-5.2h-87.8h-88H81.5H37.6h-5.5c-0.7,0-0.7,0.1-0.8-0.4c0-1.1,0-2.3-0.1-3.4c0-2.5-0.1-4.9-0.1-7.4
				c0,0.2,0.6,0.2,0.7,0.2c3.3-0.2,6.7,0,10,0h11h21.9h43.8h88h88h44.1H349.6z M357.2,260.5c1.1,0.3,2.5,0.8,3.1,1.6h-87.6h-88.1
				H96.9H65.8H49.9h-7.9c-0.2,0-4.8,0.1-4.8-0.2c-2.1,0.4-4.7,1.2-5.2,3.2c-0.1,0.6,0.1,1.4-0.9,1.4c-1.6-0.1-3.2-0.1-4.8-0.1
				c-0.8,0-1.6,0-2.5,0c-0.4,0-0.2-0.6-0.2-0.8c0.2-1.1,0.9-2.5,1.9-3.3c0.8-0.6,1.9-1.4,3-1.6c1.4-0.3,2.9-0.3,4.4-0.3h43.8h88H253
				h88h10.9C353.7,260.2,355.5,260,357.2,260.5 M363.4,268c1.5,0.2,3,0.9,4,1.8h-87.7h-87.9h-88.1H65.4H46.1h-9.7h-4.8
				c-0.5,0-2.4,0.3-2.7-0.2c-2.6,0.5-4.8,1.5-5.3,3.8c0,0.2,0,0.4-0.1,0.5c0,0.5-0.4,0.3-0.9,0.3c-0.9,0-1.7,0-2.6,0
				c-1.6,0-3.2-0.1-4.7-0.1c0.2-1.1,0.3-2.3,1.1-3.3c0.8-0.9,1.9-1.9,3.1-2.3c2.8-1.1,6.3-0.6,9.2-0.6h21.9h43.7h87.9h88h87.4
				C359.5,267.9,361.5,267.8,363.4,268 M44.5,130.3c0.6-0.3,1.3-0.5,1.9-0.7v71.6v43.7c0,0-1.7,0.1-1.8,0.1c-0.2,0-0.6,0-0.6-0.3
				v-2.5v-8.8v-17.9v-36v-27.3v-13.7v-6.5C43.9,131.4,43.7,130.7,44.5,130.3 M58,240.7v-17.8v-71.6v-13.3v-6.4c0-0.8-0.1-1,0.7-1.4
				c0.5-0.2,1.1-0.4,1.6-0.6v-0.1h0.2c-0.1,0-0.1,0-0.2,0.1c0,23.8,0.1,47.7,0.1,71.5c0,12,0,23.9,0.1,35.9c0,1.4,0,2.9,0,4.3
				c0,0.7,0,1.4,0,2.2c0,0.5,0.3,1.4-0.4,1.4c-0.2,0-2.1,0-2.1,0V240.7z M70.6,240.7v-17.8v-71.6v-13.3v-6.4c0-0.8-0.1-1,0.7-1.4
				c0.5-0.2,1.1-0.4,1.6-0.6v-0.1h0.2c-0.1,0-0.1,0-0.2,0.1c0,23.8,0.1,47.7,0.1,71.5c0,12,0,23.9,0.1,35.9c0,1.4,0,2.9,0,4.3v2.2
				c0,0.5,0.3,1.4-0.4,1.4c-0.2,0-2.1,0-2.1,0V240.7z M41.3,116.9h-1.1c-3.4,0-6.1-2.3-6.2-5c0-1.5,0.8-3,2-4.1
				c1.3-1,2.7-1.4,4.2-1.5c-0.1,0-0.2,0-0.3,0.1c-0.9,0.3-1.9,0.9-2.6,1.3c-1.3,0.8-1.8,2.1-2.1,3.4
				C34.5,114.1,37.6,116.9,41.3,116.9 M75.8,120c0.1,0,0.2,0,0.3,0c-0.2,0-0.3,0-0.5,0c-0.1,0-0.3,0-0.4,0c0,0,0.1,0,0.1,0
				c-2.1-0.1-4-0.4-5.6-1.5c-1.8-1.2-3-3.2-3-5.1c0-2.2,1.1-3.9,2.9-5.5c1.5-1.3,3.8-1.6,5.9-1.6c-0.1,0-0.2,0-0.2,0
				c1.1,0,2.4-0.1,3.5,0.2c0.8,0.3,1.6,0.7,2.3,1.2c1,0.8,2.3,2,2.3,3.2c0,1.7-0.3,3.4-1.9,4.6c-1.3,1-2.8,1.4-4.6,1.4h-0.9
				c1.5,0,3.3-0.3,4.4-1.3c0.7-0.6,1.2-1.4,1.6-2.1c0.4-0.6,0.2-1.4,0.2-2c0-2.8-3-5-6.3-5.3c-4.4,0.2-8,3.1-8,6.8
				c0,3.6,3.3,6.7,7.7,6.9c2.5-0.2,4.7-0.7,6.6-2.1c2-1.5,3.2-3.2,3.6-5.4c0.3-2.2-0.2-4.1-1.9-5.8c-0.8-0.8-1.7-1.5-2.8-1.9
				c-1.3-0.6-2.6-0.6-4.1-0.7c0.2-0.2,0.4-0.3,0.6-0.5c-0.9,0.7-2.4,0.5-3.6,0.5h-4.7h-10c-6.5,0-12.9-0.2-19.4,0
				c-5,0.1-8.9,4.2-8.4,8.2c0.3,2,1.6,4.1,3.4,5.5c2.1,1.5,4.4,2,7.2,2.3c-1.6,0-3.2-0.2-4.7-0.5c-1.5-0.4-2.5-1-3.7-1.7
				c-2-1.3-3-3.4-3.3-5.4c-0.4-2.2,0.6-4.7,2.3-6.4c0.8-0.7,2.1-1.7,3.2-2.1c1.4-0.5,2.8-0.7,4.2-0.8h0.2c-0.2,0.2-0.4,0.3-0.6,0.5
				c0.9-0.7,2-0.5,3.2-0.5h4.8h9.7h19.3c3,0.3,5.7,1,7.7,2.9c1.8,1.7,2.8,4,2.5,6.3c-0.3,2.1-1.6,4.1-3.4,5.5
				C81.4,119.3,78.5,119.9,75.8,120 M41.6,121.5c4.9,0,9.4-2.9,10.2-6.9c0.8-3.9-1.6-8.1-6.4-9.4h26.1c-4.8,1.3-7.6,6.1-6.2,10
				c1.3,3.6,5.4,6.3,10,6.3H41.6z M316.5,201.2c0,12,0,23.9,0.1,35.9c0,1.4,0,2.9,0,4.3v2.2c0,0.5,0.3,1.4-0.4,1.4
				c-0.2,0-2.1,0-2.1,0v-4.2v-17.8v-71.6v-13.3v-6.4c0-0.8-0.1-1,0.7-1.4c0.5-0.2,1.1-0.4,1.6-0.6v-0.1h0.2c-0.1,0-0.1,0-0.2,0.1
				C316.4,153.5,316.5,177.4,316.5,201.2 M328.5,130.3c0.6-0.3,1.3-0.5,1.9-0.7v71.6v43.7c0,0-1.7,0.1-1.8,0.1c-0.2,0-0.6,0-0.6-0.3
				v-2.5v-8.8v-17.9v-36v-27.3v-13.7v-6.5C328,131.4,327.7,130.7,328.5,130.3 M341.1,130.3c0.6-0.3,1.3-0.5,1.9-0.7v71.6v43.7
				c0,0-1.7,0.1-1.8,0.1c-0.2,0-0.6,0-0.6-0.3v-2.5v-8.8v-17.9v-36v-27.3v-13.7v-6.5C340.6,131.4,340.3,130.7,341.1,130.3
				 M315.6,105.2h26.1c-4.8,1.3-7.4,5.8-6.3,9.7c1,3.8,5.3,6.6,10.1,6.6h-33.9c2.7,0,5.1-0.7,7.1-2.2c1.9-1.4,3.3-3.4,3.5-5.5
				C322.4,110.2,320,106.4,315.6,105.2 M307.5,125.1l2.1,0.1v0H348c0,0,0,0.7,0,0.8c0,0.4-0.2,0.4-0.6,0.4c-1.7,0-3.5,0.1-5.2,0.2
				c-3.7,0.2-7.4,0.4-11,0.5c-7.2,0.3-14.3,0.7-21.5,1v118.3l-230.3-0.6l-0.4-119.5l2.9-1.1l0-3l-1.1-0.1l-0.7-0.8
				c0,0,8.9-2.5,9.3-7.7c0,0,2.5-11-11.7-12.3h233.4c0,0-9.7,0.2-11.4,9.9c0,0,0.4,8.4,9.5,9.9l-0.3,0.9l-1.5-0.1L307.5,125.1z
				 M39.8,86.7c0.3-0.3,1.9-0.1,2.3-0.1h3.4c2.8,0,5.5,0,8.3,0h3.8c9.7,0,19.4,0,29.1,0c29.2,0,58.4,0,87.6,0c29.2,0,58.4,0,87.7,0
				c29.1,0,58.1,0,87.2,0h0v0.8v0.6v1.3v1.4c0,0.5-0.1,0.4-0.7,0.4c-2.2,0-4.3,0-6.4,0c-4.5,0-8.9,0-13.4,0
				c-8.8,0-17.7,0.1-26.5,0.1c-29.2,0.1-58.4,0.2-87.6,0.3c-29.2,0.1-58.4,0.2-87.7,0.3c-29.1,0.1-58.1,0.2-87.2,0.3
				c0-0.8,0-1.5,0.1-2.3h-0.1c0-0.8,0-1.7,0-2.5C39.7,87,39.7,86.8,39.8,86.7 M358.7,69.1h2.9h11h5.2c0.7,0,0.4-0.4,0.4-0.9
				c0-2.5,0.1-4.9,0.1-7.4c0-1-0.5-1-1.7-1.3c-1.8-0.5-3.5-1-5.3-1.5c-3.5-1-6.9-2-10.4-2.9c-6.9-2-13.9-3.9-20.8-5.9
				c-13.9-3.9-27.8-7.9-41.8-11.8c-27.6-7.8-55.3-15.6-82.9-23.4c-6.8-1.9-13.6-3.9-20.4-5.8c-1.5-0.4-2.5,0-4,0.5
				c-1.8,0.5-3.6,1-5.3,1.5c-3.4,1-6.9,1.9-10.3,2.9c-13.9,3.9-27.8,7.9-41.7,11.8c-27.7,7.8-55.3,15.7-83,23.5
				c-9.1,2.6-18.2,5.2-27.3,7.7c-4.2,1.2-8.4,2.5-12.6,3.5c-0.6,0.1-1.1,0.1-1.1,0.7v2.9v6.1c7.5,0,15.1-0.1,22.7-0.1v3.6
				c0,0.4-0.2,0.9,0.3,1.1c0.3,0.2,0.7,0.3,1,0.5c1.2,0.6,2,1.3,3.5,1.3c0.7,0,1.5,0,2.2,0c0.7,0,0.4,0.5,0.4,0.9c0,0.3,0.3,5-0.2,5
				H29.5c0.8,1,1.6,2,2.4,3c0.4,0.5,1.1,2,1.9,2c1.2,0,2.4-0.1,3.6-0.1c0.2,0,1.5-0.1,1.5,0.1c0,0.6,0,1.1,0,1.7v7.8v3.9
				c0,0.2,0.2,1.6,0,1.7c-0.3,0.1-0.7,0.2-1.1,0.2c-1.1,0.2-2.1,0.6-3,1.1c-0.9,0.5-2,1-2.7,1.8c-1.7,1.9-2.8,4.5-2.7,6.9
				c0.1,2.2,1.4,4.3,3,6c1.8,1.8,4,2.6,6.6,3.3c-0.1,0.3-0.2,0.7-0.6,0.7c-0.4,0.1-0.8-0.1-1.2,0c-0.4,0.1-0.2,2.5-0.2,2.9
				c0,0.4,1.5,0.2,1.8,0.2c0.1,0,0.8,0,0.8,0.1v0.2h19.5h10.6h5.1c0.7,0,3.1-0.4,3,0.4c0,0.2,0.1,0.7-0.3,0.7c-0.7,0-1.5,0-2.2,0.1
				c-1.8,0.1-3.5,0.2-5.3,0.2c-3.5,0.2-7,0.3-10.6,0.5c-6.6,0.3-13.2,0.6-19.8,0.9V145v35.7v35.9v17.9v8.9c0,0.1,0.1,1.2,0,1.2
				c-0.2,0-0.4,0-0.6,0c-0.9,0-1.7,0-2.6,0c-1.9,0-3.9,0-5.8,0c-0.3,0-1.6-0.2-1.7,0.2c-0.1,0.5,0,1.1,0,1.6v4.6v4.1v2
				c0,0.8,0.1,0.9-0.8,0.9c-2.6,0.1-5.5,1.3-7.1,3.1c-0.7,0.9-1.2,1.9-1.5,2.9c-0.2,0.8,0,1.8-1.1,1.8c-2.9,0.2-5.4,1.4-7,3.3
				c-1.2,1.4-1.7,3-1.8,4.7c0,0.7-0.1,1.4-0.1,2.2c0,0.2,0,0.4,0,0.6c0,0.2,1.5,0.1,1.7,0.1h88.1h88h87.8h87.6
				c1.3,0,14.8,0.1,14.8-0.1c0.1-2.6-0.1-5.3-1.9-7.5c-1-1.3-2.5-2.3-4.3-2.8c-0.9-0.3-1.9-0.4-2.9-0.5c-0.8-0.1-0.7-0.7-0.8-1.2
				c-0.8-3.9-4.7-6.6-9.5-6.6c0.3,0,0.2-4.3,0.2-4.7v-6.7c0-0.4,0.3-2-0.2-2c-0.6,0-1.2,0-1.8,0c-2.5,0-5.1,0-7.6,0v-71.8v-35.8v-9
				v-2.1c0-0.2-0.2-0.9,0.1-1.1c0.3-0.2,1.8,0,2.2,0c0.7,0,0.7-0.2,0.7-0.8c0-0.6,0-1.1,0-1.7c0,0,0-0.6,0-0.6
				c-0.9,0-1.3,0.2-1.6-0.5c-0.2-0.5,0.8-0.5,1.3-0.7c0.7-0.2,1.3-0.5,1.9-0.8c1.4-0.6,2.6-1.5,3.6-2.5c3.2-3.1,3.1-7.8,0.9-11.2
				c-1.1-1.7-2.6-2.9-4.8-3.7c-0.9-0.4-2.1-0.5-2.9-0.9c-0.7-0.3-0.3-2.3-0.3-2.8v-7.1v-3.5c0-0.7-0.4-1.9,0.9-1.8
				c1.3,0.1,2.5,0.1,3.8,0.1c1.1,0,1.5,0.1,2-0.7c1-1.4,2-2.9,3-4.3h-5.2c-0.5,0-4.5,0.2-4.5-0.2c0-1.3,0-2.6,0-3.9
				c0-0.3-0.2-1.6,0-1.8c0.3-0.2,1.2,0,1.5,0c0.6,0,1.5,0.1,2-0.1c0.4-0.2,0.7-0.5,1.1-0.7c1-0.5,2.1-0.8,2.1-2V72
				c-0.9,0.5-1.7,1-2.6,1.4c-0.8,0.4-2,0.2-2.9,0.2h-7.7h-16.1h-32.4h-88h-87.9h-44h-22H42.4h-5.4c-0.5,0-1.5-0.7-2-1
				c-0.7-0.4-1.4-0.7-2.1-1.1h60.7h88h88.1h87.1v-0.8c0-0.3-0.2-1.5,0.1-1.7C357.3,69,358.3,69.1,358.7,69.1"/>
			<path class="st1" d="M217.9,61.8h-88.3h-47c27.8-7.9,55.5-15.7,83.2-23.6c6.9-2,13.9-3.9,20.8-5.9c1.6-0.5,3.2-0.9,4.8-1.4
				c0.6-0.2,1.2-0.3,1.7-0.5c0.7-0.3,1.5,0.1,2.2,0.3c3.4,1,6.9,1.9,10.3,2.9c13.9,3.9,27.8,7.9,41.7,11.8
				c19.3,5.4,38.5,10.9,57.8,16.3H217.9z M224.6,36.7c-7.5-2.1-15-4.2-22.5-6.4c-1.8-0.5-3.5-1-5.3-1.5c-0.8-0.2-2.7-0.4-3-1.1
				c0,0.1-0.1,0.3-0.2,0.3c-0.7,0.2-1.4,0.4-2.1,0.5c-1.8,0.5-3.6,1-5.4,1.5c-7.3,2.1-14.6,4.1-21.9,6.2c-14.3,4.1-28.7,8.1-43,12.2
				c-15.1,4.3-30.1,8.5-45.2,12.8c-1.8,0.5-3.4,1-5.3,1.1c-1.9,0.2-3.8,0.3-5.7,0.5c-4,0.3-8,0.7-12,1c-6.9,0.6-13.9,1.1-20.8,1.7
				c6.9-0.5,13.8-1.1,20.7-1.6c7.9-0.6,15.8-1.5,23.8-1.5c15.9-0.2,31.8,0,47.7,0h95.9h94.9C285,53.9,254.8,45.3,224.6,36.7"/>
			<path class="st1" d="M137.2,135c-2.5-3.5-6.3-5.9-11.6-5.9c-7.3,0-14.9,6.1-14.9,18.5c0,9.4,5.3,16.5,14.4,16.5
				c2,0,5.5-0.4,6.4-1.1c0.2-0.9,0.2-2.4,0.2-4.1c0-6.4-0.4-9-0.4-10.2c0.8,0.1,1.9,0.3,4.4,0.3c2.8,0,4-0.2,4.8-0.3
				c-0.3,1.2-0.5,6.1-0.5,9.9c0,2.5,0.1,5.6,0.2,6.5c-5.1,1.5-10.6,2.6-15.8,2.6c-13.6,0-23.3-7.7-23.3-19.8
				c0-15,10.6-22.5,24.5-22.5c6,0,10,1.3,14.2,3.5c-0.7,2-1.3,4-1.7,6H137.2z"/>
			<path class="st1" d="M158.3,129.6c-0.1,5.4-0.2,10.7-0.2,16.1c0.5,0.1,0.9,0.1,1.3,0.1c5.2,0,8-2.9,8-8.4
				C167.5,130.4,164.8,129.6,158.3,129.6 M158.7,148.2h-0.5v2.4c0,6.6,0.1,11.2,0.5,16.4c-1.3-0.1-2.9-0.3-4.8-0.3
				c-1.9,0-3.5,0.2-4.8,0.3c0.4-5.2,0.5-9.7,0.5-16.4v-8c0-6.6-0.1-11.2-0.5-16.4c1.3,0.1,2.9,0.3,4.8,0.3c2.1,0,4.7-0.3,8.7-0.3
				c6,0,8.2,0.5,10.2,2c2.4,1.7,3.8,4.3,3.8,7.8c0,5.7-3.3,9.4-9.2,10.9c3.8,6.7,8.3,13.4,12.6,20.1c-1.8-0.1-3.5-0.3-5.3-0.3
				c-1.8,0-3.6,0.2-5.4,0.3L158.7,148.2z"/>
			<path class="st1" d="M185,142.6c0-6.6-0.1-11.2-0.5-16.4c3.5,0.1,7,0.3,10.5,0.3c5.8,0,10.8-0.1,12.3-0.3
				c-0.1,0.7-0.2,1.4-0.2,2.5c0,1.2,0.1,1.8,0.2,2.7c-4.5-0.3-11.6-0.7-13.3-0.7c-0.3,4.3-0.3,8.6-0.3,12.9
				c5.1-0.1,8.9-0.2,13.4-0.5c-0.2,1.4-0.3,1.9-0.3,2.7c0,0.6,0.1,1.2,0.3,2.4c-4.5-0.4-8.9-0.5-13.4-0.5c0,2.5,0,5,0,7.6
				c0,2.5,0,5,0.2,7.4c4.4,0,9-0.2,13.5-0.8c-0.1,0.8-0.2,1.4-0.2,2.7c0,1.2,0.1,1.8,0.2,2.5c-2.1-0.1-4.9-0.3-10.3-0.3
				c-9.6,0-11.2,0.2-12.5,0.3c0.4-5.2,0.5-9.7,0.5-16.4V142.6z"/>
			<path class="st1" d="M214.5,142.6c0-6.6-0.1-11.2-0.5-16.4c3.5,0.1,7,0.3,10.5,0.3c5.8,0,10.7-0.1,12.3-0.3
				c-0.1,0.7-0.2,1.4-0.2,2.5c0,1.2,0.1,1.8,0.2,2.7c-4.5-0.3-11.6-0.7-13.4-0.7c-0.3,4.3-0.3,8.6-0.3,12.9
				c5.1-0.1,8.9-0.2,13.4-0.5c-0.2,1.4-0.3,1.9-0.3,2.7c0,0.6,0.1,1.2,0.3,2.4c-4.5-0.4-8.9-0.5-13.4-0.5c0,2.5-0.1,5-0.1,7.6
				c0,2.5,0.1,5,0.2,7.4c4.4,0,9-0.2,13.5-0.8c-0.1,0.8-0.2,1.4-0.2,2.7c0,1.2,0.1,1.8,0.2,2.5c-2.1-0.1-4.9-0.3-10.3-0.3
				c-9.6,0-11.2,0.2-12.5,0.3c0.4-5.2,0.5-9.7,0.5-16.4V142.6z"/>
			<path class="st1" d="M244.8,126.2c0.9,0.2,1.8,0.3,2.7,0.3c0.9,0,1.8-0.1,2.7-0.3c8.5,9.4,17,18.7,25.6,28.1
				c0-9.4,0-25.5-0.4-28.1c0.9,0.2,1.8,0.3,2.7,0.3c0.9,0,1.8-0.1,2.7-0.3c-0.9,17.2-0.9,25-0.9,40.8c-0.8-0.2-1.6-0.3-2.4-0.3
				c-0.8,0-1.6,0.1-2.3,0.3c-8.1-9.6-16.7-19.1-25.8-28.7c-0.1,4.4-0.1,9.3-0.1,13.8c0,9.5,0.2,12.8,0.4,14.9
				c-1-0.2-1.9-0.3-2.8-0.3c-0.9,0-1.8,0.1-2.7,0.3c0.3-1.7,1.2-17,1.2-29C245.1,132.7,244.9,129.1,244.8,126.2"/>
			<path class="st1" d="M97.3,204.9c-1.1,0-1.8,0.1-2.5,0.1c0,1.7-0.1,3.3-0.1,5.7c0,3.7,0.1,8.3,0.1,10.3c1.1,0.1,2,0.1,3.2,0.1
				c3.5,0,6.5-2.9,6.5-8C104.6,207.6,102,204.9,97.3,204.9 M97.8,187.1c-1.7,0-2.1,0.1-2.9,0.2c-0.1,2.9-0.2,6.2-0.2,8.2
				c0,2.1,0.1,4,0.1,6h2.7c3.4,0,6.7-2.5,6.7-7.5C104.2,190.3,102.5,187.1,97.8,187.1 M86,200.1c0-6.6-0.1-11.2-0.5-16.4
				c1.3,0.1,2.9,0.3,4.8,0.3c3.4,0,7.3-0.3,10.6-0.3c7.1,0,11.9,2.7,11.9,9.2c0,6.4-6,9.2-9.6,9.7v0.1c3.6,0.2,10.6,2.8,10.6,9.9
				c0,8.4-6.7,11.8-13.8,11.8c-3.1,0-5.7-0.3-8.7-0.3c-2.1,0-4.7,0.2-6,0.3c0.4-5.2,0.5-9.7,0.5-16.4V200.1z"/>
			<path class="st1" d="M138.7,208.9c-1.7-4.8-3.4-9.5-5.3-14.1c-2,4.6-3.8,9.3-5.6,14.1H138.7z M154.3,224.5
				c-1.9-0.1-3.5-0.3-5.2-0.3c-1.6,0-3.4,0.2-5,0.3c-1.2-4-2.6-8.1-4.1-12.1c-2.5-0.1-5-0.1-7.6-0.1c-2.1,0-4.1,0.1-6.1,0.1
				c-1.6,4-2.9,8-4,12.1c-0.9-0.1-1.8-0.3-2.8-0.3c-0.9,0-1.8,0.2-3,0.3c2.9-6.6,11.8-27.6,16.8-41.1c0.8,0.1,1.5,0.3,2.2,0.3
				c0.8,0,1.5-0.2,2.2-0.3C142.9,196.9,149.8,214.9,154.3,224.5"/>
			<path class="st1" d="M160.6,183.8c0.9,0.2,1.8,0.3,2.7,0.3s1.8-0.1,2.7-0.3c8.5,9.4,17,18.7,25.6,28.1c0-9.4,0-25.5-0.4-28.1
				c0.9,0.2,1.8,0.3,2.7,0.3c0.9,0,1.8-0.1,2.7-0.3c-0.9,17.2-0.9,25-0.9,40.8c-0.8-0.2-1.6-0.3-2.4-0.3s-1.6,0.1-2.3,0.3
				c-8.1-9.6-16.7-19.1-25.8-28.7c-0.1,4.4-0.1,9.3-0.1,13.8c0,9.5,0.2,12.8,0.4,14.9c-0.9-0.2-1.9-0.3-2.8-0.3
				c-0.9,0-1.8,0.1-2.7,0.3c0.3-1.7,1.2-17,1.2-29C160.9,190.2,160.7,186.6,160.6,183.8"/>
			<path class="st1" d="M214.6,206c0,8.5,0,14.8,0.5,18.6c-1.3-0.1-2.9-0.3-4.8-0.3c-2,0-3.5,0.2-4.8,0.3c0.4-5.2,0.5-9.8,0.5-16.4
				v-8c0-6.6-0.1-11.2-0.5-16.4c1.3,0.1,2.9,0.3,4.8,0.3c1.9,0,3.5-0.2,4.8-0.3c-0.5,3.1-0.5,11.2-0.5,18.8
				c5.3-6.3,13-15.8,15.1-18.8c1.1,0.1,2.2,0.3,3.3,0.3c1.1,0,2.2-0.2,3.5-0.3c-2.7,2.7-12.2,13.2-15.2,17
				c5.1,7.7,12.9,19.6,16.1,23.8c-2.3-0.1-4-0.3-5.7-0.3c-1.7,0-3.4,0.2-5.1,0.3c-3.9-6.2-7.9-12.4-11.8-18.6H214.6z"/>
			<path class="st1" d="M241.9,200.1c0-6.6-0.1-11.2-0.5-16.4c3.5,0.1,7,0.3,10.5,0.3c5.8,0,10.8-0.1,12.3-0.3
				c-0.1,0.7-0.2,1.4-0.2,2.5c0,1.2,0.1,1.8,0.2,2.7c-4.5-0.3-11.6-0.7-13.3-0.7c-0.3,4.3-0.3,8.6-0.3,12.9
				c5.1-0.1,8.9-0.2,13.4-0.5c-0.2,1.4-0.3,1.9-0.3,2.7c0,0.6,0.1,1.2,0.3,2.4c-4.5-0.4-8.9-0.5-13.4-0.5c0,2.5-0.1,5-0.1,7.6
				c0,2.5,0.1,5,0.2,7.4c4.4,0,9-0.2,13.5-0.8c-0.1,0.8-0.2,1.4-0.2,2.7c0,1.2,0.1,1.8,0.2,2.5c-2.1-0.1-4.9-0.3-10.3-0.3
				c-9.6,0-11.2,0.2-12.5,0.3c0.4-5.2,0.5-9.7,0.5-16.4V200.1z"/>
			<path class="st1" d="M280.9,187.1c-0.1,5.4-0.2,10.7-0.2,16.1c0.5,0.1,0.9,0.1,1.3,0.1c5.2,0,8-2.9,8-8.4
				C290,187.9,287.3,187.1,280.9,187.1 M281.2,205.8h-0.5v2.4c0,6.6,0.1,11.2,0.5,16.4c-1.3-0.1-2.9-0.3-4.8-0.3
				c-1.9,0-3.5,0.2-4.8,0.3c0.4-5.2,0.5-9.7,0.5-16.4v-8c0-6.6-0.1-11.2-0.5-16.4c1.3,0.1,2.9,0.3,4.8,0.3c2.1,0,4.7-0.3,8.7-0.3
				c6,0,8.2,0.5,10.2,2c2.4,1.7,3.8,4.3,3.8,7.8c0,5.7-3.3,9.4-9.2,10.9c3.8,6.7,8.3,13.4,12.6,20.1c-1.8-0.1-3.5-0.3-5.3-0.3
				c-1.8,0-3.6,0.2-5.4,0.3L281.2,205.8z"/>
		</g>
	</g>
</g>
</svg>
