<?xml version="1.0" encoding="utf-8"?>
<!-- Generator: Adobe Illustrator 21.1.0, SVG Export Plug-In . SVG Version: 6.00 Build 0)  -->
<svg version="1.1" id="Layer_1" xmlns="http://www.w3.org/2000/svg" xmlns:xlink="http://www.w3.org/1999/xlink" x="0px" y="0px"
	 viewBox="0 0 551 407" style="enable-background:new 0 0 551 407;" xml:space="preserve">
<style type="text/css">
	.st0{fill:#006838;}
</style>
<g>
	<path class="st0" d="M512.8,98.7c1.4,0,2.8,0,4.2,0c5.3,0,10.6,0,15.9,0c2.5,0,5,0,7.5,0c1,0,0.6-0.5,0.6-1.3
		c0-3.6,0.2-7.2,0.2-10.7c0-1.5-0.8-1.5-2.5-1.9c-2.6-0.7-5.1-1.5-7.7-2.2c-5-1.4-10-2.8-15-4.2c-10-2.8-20.1-5.7-30.1-8.5
		c-20.2-5.7-40.4-11.4-60.5-17.1c-40.1-11.3-80.1-22.6-120.2-34c-9.9-2.8-19.7-5.6-29.6-8.4c-2.2-0.6-3.6,0.1-5.8,0.7
		c-2.6,0.7-5.2,1.5-7.7,2.2c-5,1.4-9.9,2.8-14.9,4.2c-20.1,5.7-40.3,11.4-60.4,17.1c-40.1,11.4-80.2,22.7-120.4,34.1
		C53.2,72.4,40,76.1,26.8,79.9c-6.1,1.7-12.1,3.6-18.3,5.1C7.6,85.2,7,85.2,7,86c0,1.4,0,2.8,0,4.1C7,93.1,7,96,7,99
		c10.9-0.1,21.9-0.1,32.8-0.2c0,1.7,0,3.5,0,5.2c0,0.6-0.3,1.3,0.4,1.6c0.5,0.2,1,0.4,1.4,0.7c1.7,0.9,2.9,2,5,2
		c1.1,0,2.2,0.1,3.3,0c1-0.1,0.6,0.8,0.6,1.3c0,0.4,0.4,7.2-0.3,7.2c-4.9,0-9.7,0-14.6,0c1.2,1.5,2.4,2.9,3.5,4.4
		c0.6,0.7,1.6,2.9,2.8,2.9c1.7,0,3.5-0.1,5.3-0.1c0.4,0,2.2-0.1,2.2,0.1c0,0.8,0,1.7,0,2.5c0,3.8,0,7.6,0,11.4c0,1.9,0,3.8,0,5.7
		c0,0.3,0.3,2.3-0.1,2.4c-0.4,0.2-1,0.2-1.5,0.3c-1.6,0.3-3,0.9-4.3,1.7c-1.3,0.8-2.9,1.5-3.9,2.6c-2.5,2.8-4.1,6.6-3.9,10
		c0.2,3.2,2,6.2,4.4,8.7c2.6,2.6,5.8,3.7,9.6,4.8c-0.2,0.4-0.3,1-0.8,1.1c-0.5,0.1-1.2-0.1-1.7,0.1c-0.6,0.2-0.3,3.7-0.2,4.2
		c0,0.5,2.2,0.2,2.7,0.2c0.1,0,1.2,0,1.2,0.1c0,0.1,0,0.2,0,0.3c9.4,0,18.9,0,28.3,0c5.1,0,10.2,0,15.3,0c2.5,0,4.9,0,7.4,0
		c1,0,4.5-0.6,4.4,0.6c0,0.3,0.1,1-0.5,1c-1.1,0-2.1,0.1-3.2,0.1c-2.6,0.1-5.1,0.2-7.7,0.4c-5.1,0.2-10.2,0.5-15.3,0.7
		c-9.6,0.5-19.2,0.9-28.7,1.4c0,8.2,0,16.3,0,24.4c0,17.2,0,34.5,0,51.7c0,17.4,0,34.7,0,52.1c0,8.7,0,17.3,0,26c0,4.3,0,8.6,0,13
		c0,0.2,0.1,1.7-0.1,1.8c-0.3,0-0.6,0-0.8,0c-1.3,0-2.5,0-3.8,0c-2.8,0-5.6,0-8.4,0c-0.5,0-2.3-0.3-2.4,0.4
		c-0.1,0.8,0.1,1.6,0.1,2.4c0,2.2,0,4.4,0,6.7c0,2,0,4,0,6c0,1,0,1.9,0,2.9c0,1.2,0.2,1.3-1.2,1.3c-3.8,0.1-8,1.9-10.2,4.5
		c-1.1,1.3-1.7,2.7-2.2,4.2c-0.3,1.1,0,2.6-1.7,2.7c-4.2,0.3-7.8,2-10.2,4.8c-1.7,2.1-2.5,4.4-2.7,6.9c-0.1,1-0.1,2.1-0.1,3.1
		c0,0.3,0,0.6,0,0.9c0.1,0.3,2.1,0.1,2.5,0.1c42.6,0,85.1,0,127.7,0c42.5,0,85,0,127.5,0c42.5,0,84.9,0,127.4,0c42.3,0,84.7,0,127,0
		c1.9,0,21.4,0.2,21.5-0.1c0.2-3.8-0.1-7.7-2.7-10.9c-1.5-1.9-3.7-3.3-6.3-4.1c-1.4-0.4-2.8-0.6-4.2-0.8c-1.2-0.1-1-1-1.1-1.8
		c-1.1-5.6-6.8-9.5-13.8-9.5c0.5,0,0.3-6.2,0.3-6.8c0-3.2,0-6.5,0-9.8c0-0.5,0.4-2.9-0.3-3c-0.9,0-1.8,0-2.7,0c-3.7,0-7.4,0-11.1,0
		c0-34.7,0-69.4,0-104.1c0-17.3,0-34.6,0-51.8c0-4.4,0-8.7,0-13c0-1,0-2,0-3c0-0.3-0.3-1.3,0.1-1.6c0.4-0.3,2.6-0.1,3.2-0.1
		c1,0,1-0.3,1-1.1c0-0.8-0.1-1.6-0.1-2.5c0-0.1,0-0.9-0.1-0.9c-1.3,0-1.9,0.3-2.3-0.8c-0.3-0.7,1.1-0.8,1.8-1c1-0.3,1.9-0.7,2.8-1.1
		c2-0.9,3.7-2.1,5.2-3.6c4.6-4.5,4.6-11.3,1.3-16.2c-1.6-2.4-3.8-4.2-6.9-5.4c-1.3-0.5-3-0.7-4.2-1.3c-1-0.5-0.4-3.3-0.4-4.1
		c0-3.4,0-6.9,0-10.3c0-1.7,0-3.4,0-5c0-1.1-0.6-2.7,1.3-2.6c1.8,0.2,3.7,0.1,5.5,0.1c1.6,0,2.1,0.1,3-1c1.5-2,2.8-4.2,4.3-6.2
		c-2.5,0-5.1,0-7.6,0c-0.8,0-6.5,0.3-6.5-0.3c0-1.9,0-3.8,0-5.7c0-0.4-0.3-2.3,0.1-2.6c0.5-0.3,1.7,0,2.2,0c0.9,0,2.1,0.2,2.9-0.2
		c0.6-0.3,1-0.7,1.6-1c1.5-0.8,3.1-1.2,3.1-2.8c0-0.4,0-0.9,0-1.3c-1.2,0.7-2.5,1.4-3.7,2.1c-1.1,0.6-3,0.3-4.3,0.3
		c-3.7,0-7.4,0-11.2,0c-7.8,0-15.5,0-23.3,0c-15.6,0-31.3,0-46.9,0c-42.5,0-85,0-127.5,0c-42.5,0-85,0-127.4,0
		c-21.3,0-42.6,0-63.8,0c-10.6,0-21.2,0-31.9,0c-5.3,0-10.5,0-15.8,0c-2.6,0-5.3,0-7.9,0c-0.8,0-2.2-1-2.8-1.4c-1-0.5-2-1-3-1.5
		c29.3,0,58.7,0,88.1,0c42.5,0,85,0,127.6,0c42.6,0,85.1,0,127.7,0c42.1,0,84.2,0,126.3,0c0-0.4,0-0.7,0-1.1c0-0.5-0.3-2.2,0.2-2.4
		C510.9,98.5,512.3,98.7,512.8,98.7z M50.6,124.2c0.4-0.4,2.7-0.2,3.3-0.2c1.7,0,3.3,0,5,0c4,0,8,0,12,0c1.8,0,3.7,0,5.5,0
		c14.1,0,28.1,0,42.2,0c42.3,0,84.7,0,127-0.1c42.4,0,84.7,0,127.1-0.1c42.1,0,84.3,0,126.4-0.1c0,0,0,0,0,0c0,0.4,0,0.8,0,1.2
		c0,0.3,0,0.6,0,0.9c0,0.6,0,1.3,0,1.9c0,0.7,0,1.4,0,2c0,0.8-0.1,0.6-1,0.6c-3.1,0-6.2,0-9.3,0c-6.5,0-13,0-19.4,0.1
		c-12.8,0-25.6,0.1-38.4,0.1c-42.3,0.1-84.7,0.3-127,0.4c-42.4,0.2-84.7,0.3-127.1,0.4c-42.1,0.1-84.3,0.3-126.4,0.4
		c0-1.1,0.1-2.2,0.1-3.4c0,0-0.1,0-0.1,0c0-1.2,0-2.5,0-3.7C50.5,124.6,50.4,124.3,50.6,124.2z M438.7,179.9l3,0.2v0
		c18.5,0,37.1,0,55.6,0c0,0,0.1,1,0.1,1.1c0,0.6-0.2,0.5-0.9,0.5c-2.5-0.1-5.1,0.2-7.6,0.3c-5.3,0.3-10.7,0.5-16,0.8
		c-10.4,0.5-20.8,1-31.2,1.5v171.6L107.8,355l-0.6-173.2l4.3-1.7l0-4.4l-1.6-0.1l-1.1-1.2c0,0,12.9-3.6,13.4-11.1
		c0,0,3.6-16-17-17.8h338.4c0,0-14.1,0.3-16.5,14.4c0,0,0.6,12.2,13.8,14.4l-0.4,1.3l-2.2-0.1L438.7,179.9z M450.5,151.1
		c12.6,0,25.2,0,37.8,0c-7,1.9-10.7,8.4-9.2,14c1.5,5.5,7.8,9.6,14.7,9.6c-16.4,0-32.8,0-49.1,0c4,0,7.3-1,10.3-3.2
		c2.7-2.1,4.8-4.9,5-8C460.3,158.3,456.8,152.8,450.5,151.1z M487.4,187.5c0.9-0.4,1.9-0.7,2.8-1.1c0,34.6,0,69.2,0,103.8
		c0,21.1,0,42.3,0,63.4c0,0-2.4,0.2-2.6,0.2c-0.3,0-0.9,0-0.9-0.4c0-1.2,0-2.4,0-3.6c0-4.3,0-8.5,0-12.8c0-8.7,0-17.3,0-26
		c0-17.4,0-34.8,0-52.1c0-13.2,0-26.4,0-39.6c0-6.6,0-13.2,0-19.8c0-3.2,0-6.3,0-9.5C486.6,189.1,486.2,188,487.4,187.5z
		 M469.2,187.5c0.9-0.4,1.9-0.7,2.8-1.1c0,34.6,0,69.2,0,103.8c0,21.1,0,42.3,0,63.4c0,0-2.4,0.2-2.7,0.2c-0.3,0-0.9,0-0.9-0.4
		c0-1.2,0-2.4,0-3.6c0-4.3,0-8.5,0-12.8c0-8.7,0-17.3,0-26c0-17.4,0-34.8,0-52.1c0-13.2,0-26.4,0-39.6c0-6.6,0-13.2,0-19.8
		c0-3.2,0-6.3,0-9.5C468.4,189.1,468,188,469.2,187.5z M451.7,290.2c0,17.3,0.1,34.7,0.1,52c0,2.1,0,4.2,0,6.3c0,1,0,2.1,0,3.1
		c0,0.7,0.5,2.1-0.5,2.1c-0.2,0-3.1,0-3.1,0c0-2,0-4.1,0-6.1c0-8.6,0-17.3,0-25.9c0-34.6,0-69.2,0-103.8c0-6.4,0-12.8,0-19.2
		c0-3.1,0-6.2,0-9.3c0-1.1-0.2-1.5,1-2c0.7-0.3,1.5-0.6,2.3-0.9c0,0,0-0.1,0-0.1c0.1,0,0.2,0,0.3,0c-0.1,0-0.2,0.1-0.3,0.1
		C451.6,221.1,451.7,255.6,451.7,290.2z M53.2,174.7c7.1,0,13.6-4.2,14.8-9.9c1.2-5.6-2.4-11.8-9.3-13.7c12.6,0,25.2,0,37.8,0
		c-7,1.9-11,8.8-9,14.5c1.8,5.2,7.8,9.1,14.5,9.1C85.8,174.7,69.5,174.7,53.2,174.7z M102.7,172.4c0.1,0,0.3,0,0.4,0
		c-0.2,0-0.5,0-0.7,0c-0.2,0-0.4,0-0.6,0c0.1,0,0.1,0,0.2,0c-3-0.1-5.8-0.5-8.2-2.2c-2.5-1.8-4.4-4.6-4.4-7.4c0-3.2,1.6-5.7,4.3-8
		c2.2-1.9,5.4-2.3,8.5-2.3c-0.1,0-0.2,0-0.4,0c1.7,0,3.5-0.2,5,0.4c1.2,0.4,2.4,1.1,3.3,1.8c1.4,1.1,3.3,2.9,3.3,4.6
		c0,2.4-0.4,4.9-2.8,6.7c-1.8,1.4-4.1,2-6.6,2c-0.4,0-0.9,0-1.3,0c2.2,0,4.8-0.5,6.3-1.8c1-0.9,1.7-2,2.4-3.1c0.6-0.9,0.3-2,0.3-3
		c0-4.1-4.3-7.3-9.1-7.6c-6.3,0.3-11.6,4.6-11.6,9.9c0,5.2,4.9,9.7,11.2,10.1c3.6-0.4,6.8-1,9.6-3.1c2.9-2.1,4.7-4.6,5.2-7.8
		c0.5-3.1-0.3-5.9-2.7-8.4c-1.1-1.1-2.5-2.1-4-2.8c-1.9-0.8-3.8-0.8-5.9-1.1c0.3-0.2,0.6-0.5,0.8-0.7c-1.3,1.1-3.4,0.7-5.2,0.7
		c-2.3,0-4.5,0-6.8,0c-4.8,0-9.7,0-14.5,0c-9.4,0-18.8-0.3-28.1,0c-7.3,0.2-12.9,6.1-12.1,11.9c0.4,3,2.3,6,5,7.9
		c3.1,2.2,6.5,3,10.4,3.3c-2.3,0-4.6-0.3-6.8-0.8c-2.1-0.5-3.6-1.4-5.4-2.5c-2.9-1.8-4.3-4.9-4.8-7.8c-0.5-3.1,0.8-6.9,3.4-9.3
		c1.1-1.1,3.1-2.5,4.7-3c2-0.7,4-1,6.1-1.2c0.1,0,0.2,0,0.3,0c-0.3,0.2-0.5,0.4-0.8,0.7c1.3-1,3-0.7,4.7-0.7c2.3,0,4.6,0,6.9,0
		c4.7,0,9.3,0,14,0c9.3,0,18.6,0,28,0c4.4,0.4,8.2,1.5,11.2,4.3c2.7,2.5,4.1,5.8,3.6,9.1c-0.5,3-2.2,5.9-5,7.9
		C110.9,171.5,106.7,172.3,102.7,172.4z M52.7,167.9c-0.5,0-1.1,0-1.7,0c-4.9,0-8.9-3.3-9-7.3c0-2.2,1.1-4.4,3-5.9
		c1.8-1.5,3.9-2,6.1-2.2c-0.2,0-0.3,0.1-0.5,0.1c-1.3,0.4-2.7,1.2-3.8,1.9c-1.9,1.2-2.6,3.1-3,4.9C42.8,163.9,47.3,167.9,52.7,167.9
		z M95.2,347.5c0-8.6,0-17.3,0-25.9c0-34.6,0-69.2,0-103.8c0-6.4,0-12.8,0-19.2c0-3.1,0-6.2,0-9.3c0-1.1-0.2-1.5,1-2
		c0.8-0.3,1.5-0.6,2.3-0.9c0,0,0-0.1,0-0.1c0.1,0,0.2,0,0.3,0c-0.1,0-0.2,0.1-0.3,0.1c0.1,34.6,0.1,69.1,0.2,103.7
		c0,17.3,0.1,34.7,0.1,52c0,2.1,0,4.2,0,6.3c0,1,0,2.1,0,3.1c0,0.7,0.5,2.1-0.5,2.1c-0.2,0-3.1,0-3.1,0
		C95.2,351.6,95.2,349.6,95.2,347.5z M77,347.5c0-8.6,0-17.3,0-25.9c0-34.6,0-69.2,0-103.8c0-6.4,0-12.8,0-19.2c0-3.1,0-6.2,0-9.3
		c0-1.1-0.2-1.5,1-2c0.8-0.3,1.5-0.6,2.3-0.9c0,0,0-0.1,0-0.1c0.1,0,0.2,0,0.3,0c-0.1,0-0.2,0.1-0.3,0.1
		c0.1,34.6,0.1,69.1,0.2,103.7c0,17.3,0.1,34.7,0.1,52c0,2.1,0,4.2,0,6.3c0,1,0,2.1,0,3.1c0,0.7,0.5,2.1-0.5,2.1c-0.2,0-3.1,0-3.1,0
		C77,351.6,77,349.6,77,347.5z M57.3,187.5c0.9-0.4,1.9-0.7,2.8-1.1c0,34.6,0,69.2,0,103.8c0,21.1,0,42.3,0,63.4
		c0,0-2.4,0.2-2.7,0.2c-0.3,0-0.9,0-0.9-0.4c0-1.2,0-2.4,0-3.6c0-4.3,0-8.5,0-12.8c0-8.7,0-17.3,0-26c0-17.4,0-34.8,0-52.1
		c0-13.2,0-26.4,0-39.6c0-6.6,0-13.2,0-19.8c0-3.2,0-6.3,0-9.5C56.5,189.1,56.2,188,57.3,187.5z M519.7,387c2.2,0.3,4.3,1.4,5.9,2.6
		c-42.4,0-84.8,0-127.2,0c-42.5,0-85,0-127.4,0c-42.6,0-85.2,0-127.8,0c-18.5,0-37,0-55.5,0c-9.3,0-18.7,0-28,0c-4.7,0-9.3,0-14,0
		c-2.3,0-4.7,0-7,0c-0.8,0-3.5,0.4-3.9-0.2c-3.8,0.8-7,2.1-7.6,5.6c0,0.3-0.1,0.5-0.1,0.8c0,0.7-0.6,0.4-1.3,0.4
		c-1.3,0-2.5-0.1-3.8-0.1c-2.3,0-4.6-0.1-6.9-0.1c0.3-1.7,0.4-3.3,1.6-4.7c1.1-1.3,2.7-2.7,4.5-3.4c4-1.6,9.1-0.9,13.4-0.9
		c10.6,0,21.1,0,31.7,0c21.1,0,42.2,0,63.4,0c42.5,0,84.9,0,127.4,0c42.5,0,85,0,127.5,0c42.3,0,84.5,0,126.8,0
		C514.1,387,517,386.7,519.7,387z M510.8,376.1c1.6,0.4,3.6,1.1,4.6,2.3c-42.3,0-84.7,0-127,0c-42.6,0-85.2,0-127.8,0
		c-42.4,0-84.8,0-127.2,0c-15,0-30,0-45.1,0c-7.7,0-15.3,0-23,0c-3.8,0-7.6,0-11.4,0c-0.4,0-7,0.2-6.9-0.2c-3.1,0.6-6.8,1.7-7.5,4.6
		c-0.2,0.8,0.1,2.1-1.3,2c-2.3-0.2-4.6-0.1-6.9-0.2c-1.2,0-2.4-0.1-3.6-0.1c-0.6,0-0.4-0.9-0.3-1.2c0.3-1.6,1.3-3.6,2.8-4.8
		c1.2-0.9,2.8-2,4.4-2.4c2.1-0.5,4.3-0.5,6.4-0.5c21.2,0,42.4,0,63.6,0c42.5,0,85.1,0,127.6,0c42.6,0,85.1,0,127.7,0
		c42.5,0,85.1,0,127.6,0c5.3,0,10.5,0,15.8,0C505.6,375.7,508.3,375.5,510.8,376.1z M499.7,357.1c0.9,0,6.4-0.4,6.6,0.3
		c0.3,1-0.1,2.2-0.1,3.2c0,3.9-0.2,7.8,0.1,11.6c0.1,0.9-0.4,0.9-1.5,0.9c-1.2,0-2.4,0-3.6,0c-2.5,0-5,0-7.5,0
		c-42.4,0-84.8,0-127.2,0c-42.5,0-85.1,0-127.6,0c-42.6,0-85.3,0-127.9,0c-21.2,0-42.4,0-63.7,0c-2.6,0-5.3,0-7.9,0
		c-1.1,0-1.1,0.2-1.1-0.6c-0.1-1.7-0.1-3.3-0.1-4.9c-0.1-3.6-0.1-7.1-0.2-10.7c0,0.4,0.8,0.3,1,0.3c4.8-0.2,9.7,0,14.6,0
		c5.3,0,10.7,0,16,0c10.6,0,21.2,0,31.8,0c21.2,0,42.3,0,63.5,0c42.5,0,85,0,127.5,0c42.5,0,85,0,127.5,0c21.3,0,42.6,0,63.9,0
		C489.2,357.1,494.4,357.1,499.7,357.1z M506.3,151.7c2.9,2.5,4.5,5.8,3.9,9.2c-0.3,1.6-0.5,3.3-1.5,4.8c-0.7,1.1-1.9,2.6-3.2,3.4
		c-1.7,1.1-3.1,2-5.2,2.5c-2,0.5-4,0.8-6.1,0.8c0.2,0,0.4,0,0.7,0c-0.3,0-0.7,0-1,0c-0.2,0-0.4,0-0.6,0c0.1,0,0.2,0,0.3,0
		c-3.2-0.1-5.9-0.8-8.4-2.6c-2.8-2-4-4.6-4-7.6c0-2.9,1.7-5.3,4.1-7.3c2.7-2.2,6.1-2.5,9.7-2.5c-3.2,0-6.5,1-8.8,2.9
		c-2.1,1.7-3.9,4.9-3.5,7.4c0.4,2.4,1.1,5.2,3.6,6.8c2.2,1.5,4.8,2.6,7.7,2.8c3.6-0.3,6.9-1,9.7-3c2.9-2.1,4.9-4.8,5.3-8
		c0.4-3.2-0.8-6.1-3.3-8.6c-1.1-1.1-2.5-2.1-4.1-2.7c-1.8-0.7-3.6-0.7-5.5-0.9c0.3-0.2,0.5-0.5,0.8-0.7c-1.2,1-2.8,0.7-4.3,0.7
		c-2.2,0-4.4,0-6.7,0c-4.6,0-9.2,0-13.8,0c-9.1,0-18.3-0.3-27.3,0c-2,0.1-4.4,0-6.4,0.6c-1.7,0.5-3.2,1.6-4.5,2.6
		c-2.8,2.1-4,5.9-3.6,8.9c0.5,3.1,2.4,5.8,5.2,7.9c2.7,2,6,2.7,9.5,3.1c6.6-0.5,11.7-5.2,11.2-10.7c-0.5-5-5.7-9.1-11.8-9.2
		c-0.9,0-1.9,0.1-2.7,0.5c-1.1,0.5-2.6,1-3.6,1.8c-1.5,1.2-2.5,3.5-2.6,5.1c-0.1,0.8-0.2,1.8,0,2.7c0.2,0.9,1.3,1.9,1.9,2.6
		c1.4,1.6,3.8,2.6,6.2,2.8c3.4-0.2,6.5-2.2,7.3-5c0.9-3.1-2.1-6.2-6-6.2c2,0,4.2,0,5.7,1.3c1.6,1.3,2.2,3.1,1.7,4.9
		c-0.4,1.4-1.1,3-2.7,3.8c-1.8,1-3.4,1.2-5.4,1.2c0.1,0,0.2,0,0.3,0c-0.5,0-1,0-1.6,0c-5.4,0-9.9-3.9-8.9-8.3
		c0.5-2.1,1.4-4.1,3.6-5.4c1-0.6,2.2-1.3,3.5-1.6c1.4-0.3,2.9-0.2,4.3-0.2c-0.2,0-0.5,0-0.7,0c3.3,0,6.7,0.5,9.1,2.5
		c2.4,2.1,4.1,4.4,4.1,7.3c0,3.1-1.5,5.8-4.3,7.9c-2.4,1.8-5.3,2.2-8.3,2.3c0.1,0,0.1,0,0.2,0c-0.2,0-0.4,0-0.6,0
		c-0.4,0-0.7,0-1.1,0c0.2,0,0.4,0,0.6,0c-3.9-0.1-8-1-10.9-3.2c-3-2.3-4.8-5.3-5-8.6c-0.2-3.5,1.2-6.5,4.2-9
		c2.8-2.3,6.3-3.3,10.2-3.7c-0.2,0.2-0.4,0.4-0.5,0.7c0.9-1.1,2.5-0.7,3.9-0.7c2.3,0,4.6,0,7,0c4.7,0,9.4,0,14.1,0
		c9.5,0,19.1,0,28.6,0C499.8,148.3,503.5,149.2,506.3,151.7z M500.6,154.8c-1.1-0.8-2.5-1.4-3.8-2c-0.5-0.2-1.1-0.3-1.7-0.4
		c1.1,0,2.2,0,3.3,0.4c1.2,0.4,2.4,1,3.4,1.7c1.9,1.3,2.9,3.2,3.2,5.2c0.3,2.2-0.7,4.5-2.5,6.2c-1.7,1.5-4.2,2.1-6.6,2.1
		c-0.5,0-0.9,0-1.4,0c0.2,0,0.5,0,0.7,0c-4.2-0.1-7.9-1.7-8.7-5.4c-0.4-1.7,0.6-3.6,2.2-4.7c1.5-1.1,3.5-1.1,5.4-1.1
		c-4.2,0-6.3,3-6,6.1c0.3,2.8,3.9,4.9,7.2,5.1c4.5-0.4,8.4-3.5,8.2-7.3C503.3,158.6,502.5,156.2,500.6,154.8z M51.6,111.6
		c0-0.9,0-1.8,0-2.8c0-1,0.7-0.6,1.9-0.6c10.4,0,20.9,0,31.3,0c21,0,42.1,0,63.1,0c42.2,0,84.5,0,126.7,0c42.2,0,84.5,0,126.7,0
		c21.1,0,42.1,0,63.2,0c10.5,0,21,0,31.5,0c0.2,0,3.1,0,3.1,0c0,0.2,0,0.3,0,0.5c0,0.8,0,1.7,0,2.5c0,1.8,0,3.5,0,5.3
		c-22.7,0-45.4,0-68.1,0c-42.2,0-84.5,0-126.7,0c-42.4,0-84.8,0-127.2,0c-10.5,0-125.6,0-125.6,0C51.6,114.9,51.6,113.2,51.6,111.6z
		 M374.6,94c-46.5,0-93,0-139.4,0c-46.6,0-93.2,0-139.7,0c-20.2,0-40.4,0-60.6,0c0.1,0,0.3,0,0.4,0c35.8-10.2,71.7-20.4,107.5-30.6
		c43.7-12.4,87.4-24.9,131-37.3c0,2.5-0.1,5-0.1,7.5c0-2.4,0.1-4.8,0.1-7.2c43.7,12.4,87.5,24.8,131.2,37.2
		C441,73.7,476.9,83.9,512.8,94C466.8,94,420.7,94,374.6,94z"/>
	<path class="st0" d="M318.5,51.8c-10.9-3.1-21.7-6.2-32.6-9.2c-2.5-0.7-5.1-1.4-7.6-2.2c-1.1-0.3-3.9-0.6-4.4-1.6
		c0,0.2-0.1,0.4-0.3,0.5c-1,0.3-2,0.5-3,0.8c-2.6,0.7-5.2,1.5-7.8,2.2c-10.6,3-21.1,6-31.7,9c-20.8,5.9-41.6,11.8-62.4,17.7
		c-21.8,6.2-43.7,12.4-65.5,18.5c-2.6,0.7-4.9,1.4-7.7,1.7c-2.8,0.2-5.6,0.5-8.3,0.7c-5.8,0.5-11.6,1-17.3,1.4
		c-10,0.8-20.1,1.7-30.1,2.5c10-0.8,20-1.5,29.9-2.3c11.5-0.9,23-2.1,34.5-2.2c23-0.2,46.1,0,69.1,0c46.4,0,92.7,0,139.1,0
		c45.9,0,91.7,0,137.6,0C406.1,76.7,362.3,64.2,318.5,51.8z M308.8,88.2c-42.6,0-85.3,0-127.9,0c-22.7,0-45.4,0-68.2,0
		c40.2-11.4,80.5-22.8,120.7-34.2c10.1-2.8,20.1-5.7,30.2-8.5c2.3-0.7,4.7-1.3,7-2c0.9-0.2,1.7-0.5,2.5-0.8c1.1-0.4,2.2,0.2,3.2,0.5
		c5,1.4,10,2.8,14.9,4.2c20.1,5.7,40.3,11.4,60.4,17.1c27.9,7.9,55.8,15.8,83.8,23.7C393.2,88.2,351,88.2,308.8,88.2z"/>
</g>
<path class="st0" d="M191.8,194.3c-3.6-5.1-9.1-8.6-16.9-8.6c-10.6,0-21.6,8.8-21.6,26.8c0,13.6,7.6,23.9,20.8,23.9
	c2.9,0,8-0.6,9.3-1.5c0.3-1.4,0.3-3.5,0.3-6c0-9.3-0.5-13.1-0.6-14.7c1.1,0.2,2.8,0.4,6.3,0.4c4.1,0,5.8-0.3,6.9-0.4
	c-0.4,1.8-0.7,8.9-0.7,14.4c0,3.6,0.1,8.1,0.3,9.4c-7.5,2.1-15.3,3.8-22.9,3.8c-19.7,0-33.8-11.2-33.8-28.7
	c0-21.8,15.3-32.6,35.5-32.6c8.7,0,14.5,1.9,20.6,5.1c-0.9,2.9-1.9,5.8-2.4,8.7H191.8z"/>
<path class="st0" d="M222.9,213.4h-0.8v3.5c0,9.6,0.2,16.2,0.7,23.7c-1.9-0.2-4.2-0.4-7-0.4c-2.8,0-5.1,0.3-7,0.4
	c0.5-7.5,0.7-14.1,0.7-23.7v-11.7c0-9.6-0.2-16.2-0.7-23.7c1.9,0.2,4.2,0.4,7,0.4c3.1,0,6.8-0.4,12.6-0.4c8.7,0,11.8,0.8,14.8,2.9
	c3.4,2.5,5.6,6.3,5.6,11.3c0,8.3-4.8,13.6-13.3,15.8c5.5,9.7,12,19.4,18.2,29.1c-2.6-0.2-5.1-0.4-7.7-0.4c-2.6,0-5.2,0.3-7.8,0.4
	L222.9,213.4z M222.4,186.4c-0.2,7.8-0.3,15.5-0.3,23.3c0.7,0.1,1.3,0.2,1.9,0.2c7.5,0,11.6-4.2,11.6-12.3
	C235.7,187.5,231.8,186.4,222.4,186.4z"/>
<path class="st0" d="M261.1,205.3c0-9.6-0.2-16.2-0.7-23.7c5,0.1,10.2,0.4,15.2,0.4c8.4,0,15.6-0.2,17.9-0.4c-0.2,1-0.3,2.1-0.3,3.6
	c0,1.8,0.2,2.6,0.3,3.9c-6.5-0.4-16.8-1-19.3-1c-0.4,6.2-0.4,12.4-0.4,18.7c7.5-0.2,12.9-0.3,19.5-0.7c-0.3,2-0.4,2.7-0.4,3.9
	c0,0.9,0.2,1.7,0.4,3.5c-6.5-0.5-12.9-0.8-19.5-0.8c0,3.6-0.1,7.3-0.1,11c0,3.6,0.1,7.3,0.3,10.7c6.4,0,13-0.3,19.6-1.1
	c-0.2,1.2-0.3,2.1-0.3,3.9c0,1.8,0.2,2.6,0.3,3.7c-3.1-0.1-7.1-0.4-15-0.4c-14,0-16.3,0.3-18.2,0.4c0.5-7.5,0.7-14.1,0.7-23.7V205.3
	z"/>
<path class="st0" d="M303.9,205.3c0-9.6-0.2-16.2-0.7-23.7c5.1,0.1,10.2,0.4,15.3,0.4c8.4,0,15.6-0.2,17.9-0.4
	c-0.2,1-0.3,2.1-0.3,3.6c0,1.8,0.2,2.6,0.3,3.9c-6.5-0.4-16.8-1-19.4-1c-0.4,6.2-0.4,12.4-0.4,18.7c7.5-0.2,12.9-0.3,19.4-0.7
	c-0.3,2-0.4,2.7-0.4,3.9c0,0.9,0.2,1.7,0.4,3.5c-6.5-0.5-12.9-0.8-19.4-0.8c0,3.6-0.1,7.3-0.1,11c0,3.6,0.1,7.3,0.3,10.7
	c6.4,0,13-0.3,19.6-1.1c-0.2,1.2-0.3,2.1-0.3,3.9c0,1.8,0.2,2.6,0.3,3.7c-3.1-0.1-7.1-0.4-15-0.4c-14,0-16.3,0.3-18.2,0.4
	c0.5-7.5,0.7-14.1,0.7-23.7V205.3z"/>
<path class="st0" d="M347.8,181.5c1.3,0.3,2.6,0.4,3.9,0.4c1.3,0,2.6-0.2,3.9-0.4c12.3,13.6,24.6,27.2,37.2,40.8
	c0-13.6,0-36.9-0.6-40.8c1.3,0.3,2.6,0.4,3.9,0.4c1.3,0,2.6-0.2,3.9-0.4c-1.4,24.9-1.4,36.3-1.4,59.1c-1.2-0.3-2.3-0.4-3.5-0.4
	c-1.2,0-2.3,0.2-3.3,0.4c-11.7-13.9-24.2-27.7-37.4-41.6c-0.2,6.4-0.2,13.5-0.2,20c0,13.7,0.3,18.5,0.5,21.7c-1.4-0.3-2.8-0.4-4-0.4
	c-1.3,0-2.7,0.2-3.9,0.4c0.4-2.5,1.7-24.6,1.7-42.1C348.2,190.9,347.9,185.7,347.8,181.5z"/>
<path class="st0" d="M117.5,288.7c0-9.6-0.2-16.2-0.7-23.7c1.9,0.2,4.2,0.4,7,0.4c4.9,0,10.5-0.4,15.4-0.4
	c10.3,0,17.3,3.9,17.3,13.3c0,9.3-8.7,13.3-14,14.1v0.2c5.2,0.3,15.4,4,15.4,14.4c0,12.2-9.8,17.1-20,17.1c-4.5,0-8.3-0.4-12.6-0.4
	c-3.1,0-6.8,0.3-8.7,0.4c0.5-7.5,0.7-14.1,0.7-23.7V288.7z M134.7,269.8c-2.5,0-3.1,0.1-4.2,0.3c-0.2,4.2-0.3,9-0.3,11.9
	c0,3.1,0.1,5.8,0.1,8.7h3.9c4.9,0,9.8-3.6,9.8-10.9C143.9,274.4,141.5,269.8,134.7,269.8z M133.9,295.6c-1.5,0-2.7,0.1-3.7,0.1
	c0,2.4-0.1,4.8-0.1,8.3c0,5.4,0.2,12,0.2,15c1.5,0.1,2.8,0.2,4.7,0.2c5.1,0,9.4-4.2,9.4-11.7C144.5,299.6,140.8,295.6,133.9,295.6z"
	/>
<path class="st0" d="M216.6,324c-2.7-0.2-5.1-0.4-7.5-0.4c-2.4,0-4.9,0.3-7.3,0.4c-1.8-5.8-3.8-11.7-5.9-17.6
	c-3.7-0.1-7.3-0.2-11-0.2c-3,0-5.9,0.1-8.9,0.2c-2.3,5.8-4.2,11.6-5.8,17.6c-1.4-0.2-2.7-0.4-4-0.4c-1.4,0-2.7,0.3-4.3,0.4
	c4.2-9.5,17-40,24.4-59.5c1.1,0.2,2.1,0.4,3.3,0.4s2.1-0.3,3.3-0.4C200,284.1,210.1,310.1,216.6,324z M193.9,301.4
	c-2.5-6.9-4.9-13.7-7.6-20.4c-2.9,6.7-5.6,13.4-8.1,20.4H193.9z"/>
<path class="st0" d="M225.7,264.9c1.3,0.3,2.6,0.4,3.9,0.4c1.3,0,2.6-0.2,3.9-0.4c12.3,13.6,24.6,27.2,37.2,40.8
	c0-13.6,0-36.9-0.6-40.8c1.3,0.3,2.6,0.4,3.9,0.4c1.3,0,2.6-0.2,3.9-0.4c-1.4,24.9-1.4,36.3-1.4,59.1c-1.2-0.3-2.3-0.4-3.5-0.4
	c-1.2,0-2.3,0.2-3.3,0.4c-11.7-13.9-24.2-27.8-37.4-41.6c-0.2,6.4-0.2,13.5-0.2,20c0,13.7,0.3,18.5,0.5,21.7c-1.4-0.3-2.7-0.4-4-0.4
	c-1.3,0-2.7,0.2-3.9,0.4c0.4-2.5,1.7-24.6,1.7-42C226.2,274.3,225.8,269.1,225.7,264.9z"/>
<path class="st0" d="M303.9,297.2c0,12.3,0,21.5,0.7,26.9c-1.9-0.2-4.2-0.4-7-0.4c-2.8,0-5.1,0.3-7,0.4c0.5-7.5,0.7-14.1,0.7-23.7
	v-11.7c0-9.6-0.2-16.2-0.7-23.7c1.9,0.2,4.2,0.4,7,0.4c2.8,0,5.1-0.3,7-0.4c-0.7,4.5-0.7,16.3-0.7,27.3c7.7-9.1,18.8-23,21.8-27.3
	c1.6,0.2,3.2,0.4,4.8,0.4c1.5,0,3.2-0.3,5.1-0.4c-3.9,3.9-17.6,19.1-22.1,24.7C321,300.8,332.3,318,337,324
	c-3.4-0.2-5.8-0.4-8.3-0.4c-2.5,0-5,0.3-7.5,0.4c-5.6-9-11.5-18-17.1-26.9H303.9z"/>
<path class="st0" d="M343.6,288.7c0-9.6-0.2-16.2-0.7-23.7c5.1,0.1,10.2,0.4,15.3,0.4c8.4,0,15.6-0.2,17.9-0.4
	c-0.2,1-0.3,2.1-0.3,3.6c0,1.8,0.2,2.6,0.3,3.9c-6.5-0.4-16.8-1-19.4-1c-0.4,6.2-0.4,12.4-0.4,18.7c7.5-0.2,12.9-0.3,19.4-0.7
	c-0.3,2-0.4,2.7-0.4,3.9c0,0.9,0.2,1.7,0.4,3.5c-6.5-0.5-12.9-0.8-19.4-0.8c0,3.6-0.1,7.3-0.1,11c0,3.6,0.1,7.3,0.3,10.7
	c6.4,0,13-0.3,19.6-1.1c-0.2,1.2-0.3,2.1-0.3,3.9c0,1.8,0.2,2.7,0.3,3.7c-3.1-0.1-7.1-0.4-15-0.4c-14,0-16.3,0.3-18.2,0.4
	c0.5-7.5,0.7-14.1,0.7-23.7V288.7z"/>
<path class="st0" d="M400.6,296.8h-0.8v3.5c0,9.6,0.2,16.2,0.7,23.7c-1.9-0.2-4.2-0.4-7-0.4c-2.8,0-5.1,0.3-7,0.4
	c0.5-7.5,0.7-14.1,0.7-23.7v-11.7c0-9.6-0.2-16.2-0.7-23.7c1.9,0.2,4.2,0.4,7,0.4c3.1,0,6.8-0.4,12.6-0.4c8.6,0,11.8,0.8,14.8,2.9
	c3.4,2.5,5.6,6.2,5.6,11.3c0,8.3-4.8,13.6-13.3,15.8c5.5,9.7,12,19.4,18.2,29.1c-2.6-0.2-5.1-0.4-7.7-0.4c-2.6,0-5.2,0.3-7.8,0.4
	L400.6,296.8z M400.1,269.8c-0.2,7.8-0.3,15.5-0.3,23.3c0.7,0.1,1.3,0.2,1.9,0.2c7.5,0,11.6-4.2,11.6-12.2
	C413.4,271,409.4,269.8,400.1,269.8z"/>
</svg>
